<svg width="34" height="34" viewBox="0 0 34 34" fill="none" xmlns="http://www.w3.org/2000/svg">
<g clip-path="url(#clip0_2005_779)">
<path d="M34 17C34 15.3212 33.7663 13.7275 33.32 12.1975L30.8337 11.5387C30.4937 10.6462 30.0475 9.79625 29.5375 8.98875L32.385 9.75375C31.4925 7.84125 30.2388 6.14125 28.73 4.69625L26.2438 5.355C25.5 4.76 24.6925 4.22875 23.8425 3.80375L26.69 3.03875C24.99 1.84875 23.0775 0.9775 20.995 0.4675L19.1887 2.295C18.4875 2.1675 17.7437 2.125 17 2.125C16.7663 2.125 16.5325 2.125 16.2987 2.1675L18.4237 0.06375C17.9562 0.02125 17.4888 0 17 0C15.3212 0 13.7275 0.23375 12.1975 0.68L11.5387 3.16625C10.6462 3.50625 9.79625 3.9525 8.98875 4.4625L9.75375 1.615C7.84125 2.5075 6.14125 3.76125 4.69625 5.27L5.355 7.75625C4.76 8.5 4.22875 9.3075 3.80375 10.1575L3.03875 7.31C1.87 8.98875 0.9775 10.9225 0.4675 12.9838L2.31625 14.8325C2.18875 15.5338 2.125 16.2563 2.125 17C2.125 17.2337 2.125 17.4675 2.1675 17.7013L0.06375 15.5975C0.02125 16.065 0 16.5325 0 17C0 18.6575 0.23375 20.2725 0.68 21.7812L3.16625 22.44C3.50625 23.3538 3.9525 24.2038 4.4625 25.0113L1.615 24.2463C2.5075 26.1588 3.76125 27.8587 5.27 29.3037L7.75625 28.645C8.5 29.24 9.3075 29.7712 10.1575 30.1963L7.31 30.9613C8.98875 32.13 10.9225 33.0225 12.9838 33.5325L14.8325 31.705C15.5338 31.8113 16.2563 31.875 17 31.875C17.2337 31.875 17.4675 31.875 17.7013 31.8325L15.5975 33.9362C16.065 33.9788 16.5325 34 17 34C18.6575 34 20.2725 33.7663 21.7812 33.32L22.44 30.8337C23.3538 30.4937 24.2038 30.0475 25.0113 29.5375L24.2463 32.385C26.1588 31.4925 27.8587 30.2388 29.3037 28.73L28.6238 26.265C29.2188 25.5212 29.75 24.7138 30.1963 23.8425L30.9613 26.69C32.13 25.0113 33.0225 23.0775 33.5325 21.0163L31.705 19.1887C31.8113 18.4875 31.875 17.7437 31.875 17C31.875 16.7663 31.875 16.5325 31.8325 16.2987L33.9362 18.4025C33.9788 17.935 34 17.4675 34 17ZM17 25.5C12.3038 25.5 8.5 21.6963 8.5 17C8.5 12.3038 12.3038 8.5 17 8.5C21.6963 8.5 25.5 12.3038 25.5 17C25.5 21.6963 21.6963 25.5 17 25.5Z" fill="#020920"/>
<path d="M17 10.625C13.4938 10.625 10.625 13.4938 10.625 17C10.625 20.5063 13.4938 23.375 17 23.375C20.5063 23.375 23.375 20.5063 23.375 17C23.375 13.4938 20.5063 10.625 17 10.625ZM13.6425 17.0213C13.09 16.8513 12.7712 16.235 12.9625 15.6825C13.1325 15.13 13.7487 14.8325 14.3012 15.0025C14.8538 15.1937 15.1513 15.7888 14.9813 16.3412C14.79 16.8938 14.195 17.2125 13.6425 17.0213ZM15.98 20.2088C15.64 20.6763 14.9813 20.7825 14.4925 20.4425C14.025 20.1025 13.9188 19.4225 14.2587 18.955C14.62 18.4875 15.2787 18.3813 15.7462 18.7213C16.235 19.0613 16.3412 19.72 15.98 20.2088ZM17 14.875C16.405 14.875 15.9375 14.4075 15.9375 13.8125C15.9375 13.2175 16.405 12.75 17 12.75C17.595 12.75 18.0625 13.2175 18.0625 13.8125C18.0625 14.4075 17.595 14.875 17 14.875ZM19.5075 20.4425C19.0188 20.7825 18.36 20.6763 18.02 20.2088C17.6587 19.72 17.765 19.0613 18.2538 18.7213C18.7213 18.3813 19.38 18.4875 19.7413 18.955C20.0813 19.4225 19.975 20.1025 19.5075 20.4425ZM20.3575 17.0213C19.805 17.2125 19.21 16.8938 19.0187 16.3412C18.8487 15.7888 19.1463 15.1937 19.6988 15.0025C20.2513 14.8325 20.8675 15.13 21.0375 15.6825C21.2287 16.235 20.91 16.8513 20.3575 17.0213Z" fill="#FA1D1D"/>
</g>
<defs>
<clipPath id="clip0_2005_779">
<rect width="34" height="34" fill="white"/>
</clipPath>
</defs>
</svg>
